<?xml version="1.0" standalone="no"?>
<!DOCTYPE svg PUBLIC "-//W3C//DTD SVG 20010904//EN"
 "http://www.w3.org/TR/2001/REC-SVG-20010904/DTD/svg10.dtd">
<svg version="1.0" xmlns="http://www.w3.org/2000/svg"
 width="1024.000000pt" height="1024.000000pt" viewBox="0 0 1024.000000 1024.000000"
 preserveAspectRatio="xMidYMid meet">

<g transform="translate(0.000000,1024.000000) scale(0.100000,-0.100000)"
fill="#000000" stroke="none">
<path d="M4275 7658 c-121 -72 -429 -256 -685 -408 l-465 -277 -3 -1531 -2
-1531 82 -49 c46 -27 236 -140 423 -252 187 -111 456 -272 598 -357 156 -94
264 -152 273 -149 32 12 304 177 304 184 -1 7 -61 44 -440 268 -278 164 -815
481 -870 514 l-45 26 0 1339 0 1339 325 191 c179 105 418 246 532 313 114 67
212 122 218 122 6 0 74 -37 152 -82 l140 -81 -28 -15 c-35 -18 -758 -440 -906
-529 l-108 -64 0 -500 0 -499 1188 0 1188 0 25 28 c36 39 239 299 239 306 0 3
-522 6 -1160 6 l-1160 0 0 229 0 229 138 80 c206 119 484 281 698 409 105 62
196 113 201 113 6 0 122 -66 259 -146 630 -370 1058 -619 1419 -829 160 -92
293 -170 298 -172 4 -2 7 243 7 544 l0 548 -62 35 c-68 37 -232 133 -678 395
-157 92 -364 215 -461 271 -97 57 -182 104 -189 104 -7 0 -63 -30 -124 -67
-61 -37 -133 -79 -160 -94 l-49 -27 39 -24 c100 -63 1273 -750 1327 -778 l27
-13 0 -160 0 -159 -32 20 c-155 92 -338 199 -883 517 -657 383 -999 584 -1221
717 -73 43 -136 78 -140 78 -5 -1 -108 -60 -229 -132z m1590 24 c-3 -3 -11 0
-18 7 -9 10 -8 11 6 5 10 -3 15 -9 12 -12z m135 -78 c0 -2 -9 0 -20 6 -11 6
-20 13 -20 16 0 2 9 0 20 -6 11 -6 20 -13 20 -16z m325 -189 c88 -51 159 -99
157 -105 -1 -6 2 -9 7 -5 8 4 118 -53 229 -120 9 -6 48 -28 85 -50 38 -22 90
-52 115 -68 26 -15 77 -43 115 -63 l67 -36 0 -536 c0 -294 -2 -533 -4 -531 -3
3 -6 160 -7 350 -2 306 -4 347 -18 356 -9 6 -25 7 -36 2 -11 -4 -15 -8 -9 -8
24 -2 21 -26 -2 -26 -14 0 -22 5 -20 12 6 14 -17 24 -33 14 -7 -5 -24 -6 -38
-3 -18 3 -21 7 -11 13 10 7 8 9 -7 9 -16 0 -17 2 -5 10 12 8 12 10 -3 16 -9 3
-15 10 -12 14 6 10 -15 8 -31 -3 -7 -4 -14 1 -17 12 -3 14 -11 18 -26 14 -15
-4 -21 -1 -21 11 0 9 5 16 10 16 6 0 10 4 10 10 0 5 -7 7 -16 3 -12 -5 -14 1
-10 36 4 37 3 41 -17 41 -24 1 -63 25 -50 32 4 3 2 3 -6 1 -11 -3 -191 94
-191 103 0 6 115 -51 122 -60 4 -6 14 -4 25 5 16 13 17 12 5 -3 -9 -11 -10
-18 -2 -23 6 -4 10 -3 9 2 -1 4 0 10 1 13 9 22 4 60 -8 60 -9 0 -12 -6 -8 -16
3 -8 2 -12 -4 -9 -5 3 -8 23 -5 43 3 31 2 34 -8 21 -7 -9 -20 -16 -29 -16 -18
0 -20 17 -3 29 6 5 5 8 -3 8 -7 0 -10 5 -7 10 3 6 2 10 -4 10 -5 0 -14 -7 -19
-16 -8 -15 -10 -15 -15 0 -4 9 -2 16 3 16 6 0 10 7 10 15 0 9 10 15 23 16 12
0 16 3 9 6 -8 3 -25 0 -38 -8 -13 -7 -27 -9 -31 -6 -3 4 -1 7 5 7 17 0 52 32
46 42 -3 4 -13 8 -23 8 -10 0 -24 7 -31 15 -8 9 -8 15 -2 15 6 0 13 -6 16 -12
4 -7 4 -2 2 12 -5 24 -5 25 11 5 11 -14 14 -15 10 -4 -3 9 -1 22 4 28 6 8 5 8
-3 1 -8 -6 -16 -6 -26 2 -17 15 -44 20 -36 7 3 -5 12 -9 20 -9 8 0 12 -4 9
-10 -3 -5 -13 -10 -21 -10 -8 0 -13 4 -10 9 3 5 0 14 -8 20 -8 7 -12 21 -8 34
l5 22 -25 -23 c-28 -26 -37 -22 -30 14 3 19 7 22 13 12 7 -10 9 -9 9 4 0 9 3
23 6 32 3 9 1 16 -6 16 -6 0 -9 -4 -6 -8 3 -5 -1 -9 -8 -9 -9 0 -12 7 -8 16 5
14 4 14 -13 1 -11 -9 -16 -10 -11 -2 7 11 3 14 -34 16 -8 1 -16 10 -17 21 -3
20 -3 20 6 0 13 -27 14 -3 1 29 -11 29 -33 36 -23 9 3 -12 0 -10 -11 5 -10 12
-22 20 -27 17 -5 -4 -9 5 -9 18 0 18 -10 31 -36 46 -19 12 -40 19 -45 16 -5
-4 -9 0 -9 7 0 10 -3 9 -11 -2 -9 -13 -10 -13 -6 0 3 9 -10 24 -32 37 -20 13
-31 23 -26 23 6 0 82 -43 170 -95z m-80 -305 c3 -6 -1 -7 -9 -4 -18 7 -21 14
-7 14 6 0 13 -4 16 -10z m75 -46 c0 -2 -13 2 -30 11 -16 9 -30 18 -30 21 0 2
14 -2 30 -11 17 -9 30 -18 30 -21z m220 26 c0 -5 -2 -10 -4 -10 -3 0 -8 5 -11
10 -3 6 -1 10 4 10 6 0 11 -4 11 -10z m30 -26 c0 -8 -4 -12 -10 -9 -5 3 -10
10 -10 16 0 5 5 9 10 9 6 0 10 -7 10 -16z m-140 -49 c6 4 9 1 8 -6 -2 -6 3
-14 11 -17 9 -3 11 0 6 9 -5 8 -4 10 0 6 5 -4 10 -14 11 -22 2 -11 -10 -8 -44
12 -26 14 -54 33 -62 40 -8 8 2 5 22 -7 21 -12 42 -19 48 -15z m205 -95 c-3
-5 -10 -10 -16 -10 -5 0 -9 5 -9 10 0 6 7 10 16 10 8 0 12 -4 9 -10z m-635
-26 c0 -2 -9 0 -20 6 -11 6 -20 13 -20 16 0 2 9 0 20 -6 11 -6 20 -13 20 -16z
m85 -44 c39 -26 25 -26 -17 0 -18 11 -28 20 -23 20 6 0 24 -9 40 -20z m69 -49
c-2 -3 -12 3 -22 13 -16 17 -16 18 5 5 12 -7 20 -15 17 -18z m106 -57 c0 -2
-9 0 -20 6 -11 6 -20 13 -20 16 0 2 9 0 20 -6 11 -6 20 -13 20 -16z m35 -22
c-3 -3 -11 0 -18 7 -9 10 -8 11 6 5 10 -3 15 -9 12 -12z m115 -67 c0 -2 -6 -7
-12 -11 -7 -4 -10 -4 -6 1 4 4 0 14 -10 22 -15 13 -15 13 6 3 12 -6 22 -13 22
-15z m415 -3 c-3 -3 -11 0 -18 7 -9 10 -8 11 6 5 10 -3 15 -9 12 -12z m-365
-28 c0 -2 -9 0 -20 6 -11 6 -20 13 -20 16 0 2 9 0 20 -6 11 -6 20 -13 20 -16z
m35 -14 c3 -6 -1 -7 -9 -4 -18 7 -21 14 -7 14 6 0 13 -4 16 -10z m65 -40 c8
-5 11 -10 5 -10 -5 0 -21 10 -35 21 -24 20 -5 13 30 -11z m149 -86 c14 -12
-19 -1 -35 12 -18 14 -18 14 6 3 14 -6 27 -13 29 -15z m36 -24 c3 -6 -1 -7 -9
-4 -18 7 -21 14 -7 14 6 0 13 -4 16 -10z m-386 -542 c-47 -67 -93 -117 -102
-111 -6 3 -7 1 -4 -4 9 -14 -32 -65 -44 -57 -5 3 -8 2 -7 -3 4 -15 -23 -54
-34 -47 -6 4 -9 1 -6 -7 12 -35 -15 -39 -249 -37 l-228 3 225 2 c146 2 228 7
235 14 7 8 3 9 -15 4 -24 -6 -23 -5 4 14 17 11 33 18 38 15 7 -5 12 20 11 54
-1 8 6 10 17 7 21 -7 36 10 19 21 -8 4 -9 3 -5 -4 4 -7 -3 -10 -23 -7 -24 3
-29 0 -24 -13 3 -10 -4 -7 -16 8 -11 14 -19 30 -17 35 2 6 -10 12 -27 13 -35
3 -40 6 -43 27 -1 9 6 15 17 15 10 0 19 4 19 9 0 4 -11 6 -25 3 -17 -3 -27 1
-31 12 -3 9 -11 13 -17 9 -6 -4 -8 0 -4 10 5 13 -4 15 -60 15 -45 0 -68 4 -74
13 -7 12 -9 12 -9 0 0 -10 -4 -11 -13 -3 -7 7 -95 11 -232 12 -120 0 -221 3
-224 5 -2 3 215 5 483 5 l487 0 -22 -32z m-359 -49 c0 -6 -4 -7 -10 -4 -5 3
-10 11 -10 16 0 6 5 7 10 4 6 -3 10 -11 10 -16z m120 -99 c0 -5 -5 -10 -11
-10 -5 0 -7 5 -4 10 3 6 8 10 11 10 2 0 4 -4 4 -10z m17 -12 c-3 -8 -6 -5 -6
6 -1 11 2 17 5 13 3 -3 4 -12 1 -19z m-469 -105 c-10 -2 -28 -2 -40 0 -13 2
-5 4 17 4 22 1 32 -1 23 -4z"/>
<path d="M6433 7327 c0 -7 9 -13 19 -13 10 0 18 1 18 3 0 1 -8 7 -18 12 -13 7
-19 6 -19 -2z"/>
<path d="M6720 6869 c0 -5 5 -7 10 -4 6 3 10 8 10 11 0 2 -4 4 -10 4 -5 0 -10
-5 -10 -11z"/>
<path d="M6860 6703 c0 -5 11 -8 24 -8 13 0 22 3 19 8 -2 4 -13 7 -24 7 -10 0
-19 -3 -19 -7z"/>
<path d="M6936 6637 c3 -10 9 -15 12 -12 3 3 0 11 -7 18 -10 9 -11 8 -5 -6z"/>
<path d="M6962 6625 c-9 -20 -9 -23 3 -18 8 3 12 10 9 15 -4 6 2 7 17 3 13 -4
22 -6 19 -3 -34 28 -37 28 -48 3z"/>
<path d="M7070 6631 c0 -6 5 -13 10 -16 6 -3 10 1 10 9 0 9 -4 16 -10 16 -5 0
-10 -4 -10 -9z"/>
<path d="M6050 5906 c0 -2 8 -10 18 -17 15 -13 16 -12 3 4 -13 16 -21 21 -21
13z"/>
<path d="M6080 5840 c0 -5 10 -10 23 -10 18 0 19 2 7 10 -19 13 -30 13 -30 0z"/>
<path d="M6163 5824 c-7 -20 12 -41 22 -23 6 8 4 10 -5 4 -10 -6 -12 -3 -8 13
7 25 0 30 -9 6z"/>
<path d="M3774 5291 c-2 -2 -4 -238 -4 -523 l0 -518 38 -23 c31 -20 559 -333
1160 -688 73 -44 137 -79 143 -79 10 0 180 100 884 520 154 92 391 233 526
313 135 81 249 147 253 147 3 0 6 -79 6 -175 l0 -174 -32 -17 c-18 -9 -179
-103 -358 -209 -179 -106 -464 -274 -635 -375 -170 -100 -316 -187 -322 -192
-9 -7 31 -36 145 -104 86 -52 163 -94 169 -94 7 0 271 154 585 343 315 188
619 369 675 402 l103 60 0 553 c0 303 -2 552 -5 552 -6 0 -314 -179 -635 -370
-146 -87 -375 -223 -510 -302 -135 -80 -379 -225 -542 -322 -163 -97 -301
-176 -307 -176 -6 0 -39 17 -73 38 -35 21 -218 130 -408 242 -190 111 -389
229 -442 262 l-98 60 0 254 0 254 1050 0 c578 0 1050 3 1050 8 0 4 -71 80
-158 170 l-157 162 -1048 3 c-577 1 -1051 0 -1053 -2z m1964 -18 c-16 -2 -40
-2 -55 0 -16 2 -3 4 27 4 30 0 43 -2 28 -4z m417 -293 c3 -5 -1 -10 -10 -10
-9 0 -13 5 -10 10 3 6 8 10 10 10 2 0 7 -4 10 -10z m942 -337 c-1 -65 -3 -12
-3 117 0 129 2 182 3 118 2 -65 2 -171 0 -235z m-1070 331 c-3 -3 -12 -4 -19
-1 -8 3 -5 6 6 6 11 1 17 -2 13 -5z m90 0 c-3 -3 -12 -4 -19 -1 -8 3 -5 6 6 6
11 1 17 -2 13 -5z"/>
</g>
</svg>
